PathFileType	4	(X/Y/Z)	Trial_1_0-99.trc
DataRate	CameraRate	NumFrames	NumMarkers	Units	OrigDataRate	OrigDataStartFrame	OrigNumFrames
60	60	5	22	m	60	0	99
Frame#	Time	Hip			RHip			RKnee			RAnkle			RBigToe			RSmallToe			RHeel			LHip			LKnee			LAnkle			LBigToe			LSmallToe			LHeel			Neck			Head			Nose			RShoulder			RElbow			RWrist			LShoulder			LElbow			LWrist		
		X1	Y1	Z1	X2	Y2	Z2	X3	Y3	Z3	X4	Y4	Z4	X5	Y5	Z5	X6	Y6	Z6	X7	Y7	Z7	X8	Y8	Z8	X9	Y9	Z9	X10	Y10	Z10	X11	Y11	Z11	X12	Y12	Z12	X13	Y13	Z13	X14	Y14	Z14	X15	Y15	Z15	X16	Y16	Z16	X17	Y17	Z17	X18	Y18	Z18	X19	Y19	Z19	X20	Y20	Z20	X21	Y21	Z21	X22	Y22	Z22
0	0.0	-0.047580076702754506	1.0078198550869928	-1.0641260926234706	-0.14297407619139998	0.9351829320573134	-1.2485333993977137	-0.08692493776241642	0.6636574677253965	-1.1318521524402314	-0.01770069828346545	0.3057566304759327	-1.2611021253676795	0.06653622913582177	0.0692996099377307	-1.4869335405933135	-0.036916304913296054	0.056088437599059765	-1.3809820876973231	-0.009676843541867451	0.2612455757835961	-1.2850420341928357	0.01926367487843345	1.0206079727963673	-0.904344905060807	0.02011136115738811	0.7962072457586156	-0.8627436086835608	-0.02167789978947945	0.33644162931495525	-0.9063861833640526	0.006173861775937536	0.23506193096684144	-0.8692725597852454	0.042595255612780665	0.2147541535596446	-0.851699685825139	-0.015062168687953134	0.2278680636371019	-1.0234178583857556	-0.057227256992750296	1.467065516055528	-1.1773896773722026	-0.07978229921503609	1.7373107386115314	-1.1377639060413363	-0.013433594093239	1.6289016777592644	-1.2062245746379001	-0.2023570118410737	1.4419566169734903	-1.1894527805003454	-0.2882127893368004	1.220599825634255	-1.3055562144306572	-0.4561507448616618	1.1178245952538772	-1.2153117294410818	0.13885030663818376	1.404766117367105	-1.057476393113483	0.20986999659489575	1.2734992349798082	-1.2196995436013427	0.2910926694705406	1.0253900468314459	-1.309194004487955
1	0.016666666666666666	0.0009814127878749633	0.9232591310295281	-1.3488659532015188	-0.08910777117533404	0.9026764174950499	-1.3739078137435505	-0.04956059369771747	0.5243375435667059	-1.3725364686225048	0.01760532814855418	0.18803389173198712	-1.5239336417524463	0.03629782943873442	0.0699704376936614	-1.433696944079185	0.004542595619795677	0.06224476540150284	-1.5200162371635908	0.02966628017624962	0.13894986671331347	-1.5555388295299817	0.09375583042982039	0.9207350062350763	-1.3120370343942382	0.03248631261800505	0.5840020750342271	-1.1498359237533868	-0.0034789584665196496	0.19743499177287252	-1.1020843282896418	-0.035682499939133715	0.1284708253896113	-0.9627173677265823	0.018851607092290317	0.12285898869583385	-0.9795248518323414	-0.00375456909196944	0.12302253874872038	-1.1502177261786448	-0.04280438679104564	1.472064234907212	-1.335195496382534	-0.0662142412974474	1.7024142621397174	-1.2299295393115501	-0.05025904985663058	1.5635795719903718	-1.2132821354267094	-0.20047223936030267	1.3895008136313385	-1.389192741156474	-0.29001379974429536	1.1373240082889773	-1.4630603963431341	-0.37549119270642917	0.9349650761549695	-1.3370424156225278	0.13714436488150245	1.4075620405903415	-1.3528682088332533	0.2585037146713523	1.1810838396874657	-1.4016833555529404	0.34521097462360023	0.9484670306444946	-1.3932336842203048
2	0.03333333333333333	0.013384903225077365	0.897529382367954	-1.4283355618288804	-0.07920477536051164	0.8904731681837895	-1.4154464079038416	-0.040771633625151564	0.47985003168473633	-1.4431677548475204	0.027355572678023434	0.1516514232519677	-1.596068157454917	0.04364858360096463	0.059372406002612524	-1.4526903569542529	-0.008303570462634939	0.061708156219812516	-1.5391074495257353	0.04420604029708657	0.10558470771853128	-1.6342498537950407	0.13862055179789678	0.8740197844008935	-1.4114644015967732	0.060154703036916224	0.5127549066318833	-1.2183388170484346	0.001579432648382641	0.15132581356102523	-1.1646266958874782	-0.0458309531229415	0.09877880466908026	-0.9874651345623248	0.009169049603880812	0.09597799190092941	-1.0104230707958421	-0.0018899648045053634	0.0896151153763559	-1.1935887229266724	-0.03403411826614594	1.4738512720916666	-1.3760530777143285	-0.05467313807807388	1.691037341100912	-1.2577036987449273	-0.05573297970947749	1.542181574948943	-1.2057521192141127	-0.1971634311075642	1.3757860277683467	-1.451712074510632	-0.29039273904949814	1.1160465143889473	-1.5095316170190207	-0.3703795483732075	0.9163253424389549	-1.3470280528849086	0.14534089585238705	1.4070264973340108	-1.4435246905863057	0.2755691990904576	1.1511539796264996	-1.4490811700877808	0.35931121637134683	0.919162047957531	-1.4165115558564076
3	0.05	0.009165840561029103	0.8974992296926266	-1.4186789003501326	-0.08619586232373101	0.8888457939044243	-1.4120822468256633	-0.04301060545494646	0.4797475795467175	-1.4378165920922963	0.026488301198096212	0.1521393134435203	-1.5905960726008626	0.035233407907642386	0.05267848249647555	-1.4532434392350346	-0.032481144123331473	0.059248279806312885	-1.518500759519306	0.046194992310715687	0.10878204024040589	-1.632577349220257	0.13397386624721125	0.8713362416639685	-1.4020505616657386	0.0570929708906218	0.511878715080512	-1.209042730378643	-0.0006886091834258015	0.1493153232297617	-1.1640946248783797	-0.04466524340549605	0.09973404421537377	-0.9844343163535777	0.008646404081789974	0.09608767697929826	-1.0064243277653027	-0.0036356820122205387	0.08875895412875519	-1.1948278777558976	-0.02623672662442211	1.4732897514147874	-1.3669320404132423	-0.04245017712909509	1.691627418692011	-1.2506543463771695	-0.04743797955104737	1.541766356186189	-1.194099916149359	-0.1927456232812281	1.3802922450793942	-1.4452556603995934	-0.2904043718525111	1.1238279499502193	-1.5041489894562596	-0.3839140339348764	0.9445867679561047	-1.3238133912675847	0.15384744549949808	1.4039702041881013	-1.4366500361400119	0.2793136487883521	1.147943602022579	-1.4365633941167946	0.35773509288456035	0.9130410251903678	-1.4071796410780788
4	0.06666666666666667	0.0042770694114126154	0.8975306913137564	-1.40937201016291	-0.08954753565589603	0.8909406728400978	-1.399222317763132	-0.043425153463242896	0.48243947714983854	-1.432193156058677	0.02579219648120086	0.15548601227931486	-1.5934447281630726	-0.004779546257932979	0.05820058405800091	-1.4195517951177146	-0.03772192149369479	0.05980222509385105	-1.5176424495056702	0.04618456388592561	0.11071978488446965	-1.6353387192709046	0.08913663393988631	0.8927340848760235	-1.4207474383321057	0.014801878411766504	0.5265110128798987	-1.2103696317473458	-0.00383231630250395	0.1512153288281733	-1.1580484474589494	-0.046458435891775944	0.09703317491742977	-0.9839454234339826	0.011014574305384621	0.09371986114188682	-1.0113585735742359	-0.005103892538584078	0.08930326162782945	-1.189831282627643	-0.016742426983307985	1.4730025688539952	-1.3594285242629485	-0.028041354741323528	1.694686359453312	-1.234468588786937	-0.03778572044784465	1.5439218587622574	-1.1845125861441217	-0.18711448006486153	1.385754901228654	-1.4292985602925798	-0.29156249995688094	1.1336055062441408	-1.49459429487983	-0.37924198830446976	0.9414752275815462	-1.321424803637941	0.15666576809319716	1.400779380506887	-1.4247155869897419	0.2828062322354745	1.143826788659638	-1.4245116790120071	0.35855882841463854	0.9100636691768466	-1.3931849224581565
